<svg width="246" height="452" viewBox="0 0 246 452" fill="none" xmlns="http://www.w3.org/2000/svg">
<path d="M56.3951 0.836478C52.9295 2.4516 50.8816 6.13048 50.8816 10.7964C50.8816 14.565 51.2754 15.552 53.4808 18.0644L56.0013 21.0255L65.8468 21.2947L75.6923 21.6536V61.0445V100.435H53.4021C29.379 100.435 25.9134 100.884 18.1945 105.371C10.1606 110.036 2.99304 120.983 0.945169 131.661C-0.315056 138.391 -0.315056 371.147 0.945169 377.877C3.15056 389.542 10.8694 400.578 20.1636 405.155L25.2833 407.667V411.974C25.2833 436.56 44.5805 455.493 65.453 451.455C79.3942 448.763 89.7911 437.726 93.4142 421.934C94.0443 419.152 94.5957 415.025 94.5957 412.961V409.103H122.951H151.306V412.692C151.306 436.56 170.918 455.493 191.476 451.455C208.252 448.225 220.54 431.625 220.618 412.243L220.697 407.757L225.817 405.155C235.032 400.399 241.885 390.888 244.641 378.864C246.453 371.147 246.453 138.391 244.641 130.674C241.254 115.689 231.251 104.563 218.413 101.423C215.892 100.794 205.574 100.435 192.263 100.435H170.209V60.9548V21.4741H175.329C183.757 21.4741 187.537 18.1541 187.537 10.7067C187.537 8.46343 186.986 5.68184 186.277 4.60509C183.363 -0.240268 185.411 -0.0608105 119.249 0.0289183C85.5378 0.0289183 57.2615 0.387834 56.3951 0.836478ZM151.306 60.9548V100.435H122.951H94.5957V60.9548V21.4741H122.951H151.306V60.9548ZM219.279 124.573C220.933 125.739 223.217 128.341 224.399 130.315L226.526 133.994V254.769V375.544L224.399 379.223C223.217 381.197 220.933 383.799 219.279 384.966L216.286 387.119H122.872H29.5365L26.3072 384.696C24.5744 383.351 22.2902 380.748 21.2663 378.864L19.376 375.454L19.1397 256.743C19.0609 174.641 19.2184 136.865 19.7698 134.443C20.7937 130.136 25.7559 124.124 29.379 122.957C30.9543 122.419 67.4221 122.15 124.132 122.24L216.286 122.419L219.279 124.573ZM75.456 414.128C74.9047 420.139 72.3055 425.074 68.0522 428.036C63.7989 431.086 56.08 431.086 51.8268 428.036C47.5735 425.074 44.9743 420.139 44.423 414.128L43.9504 409.103H59.9395H75.9286L75.456 414.128ZM201.479 414.128C200.927 420.139 198.328 425.074 194.075 428.036C189.822 431.086 182.103 431.086 177.849 428.036C173.596 425.074 170.997 420.139 170.446 414.128L169.973 409.103H185.962H201.951L201.479 414.128Z" fill="#717171"/>
<path d="M56.3943 158.67C52.9287 160.375 50.8809 164.053 50.8809 168.719C50.8809 172.488 51.2747 173.475 53.4801 175.987L56.0005 178.948L107.197 179.218L158.394 179.397V183.255C158.394 191.78 161.151 196.715 166.664 197.881C170.051 198.599 174.147 196.356 175.958 192.946C176.825 191.241 177.297 188.46 177.297 184.96V179.577L183.598 179.218C189.506 178.948 190.057 178.769 192.42 175.987C194.625 173.475 195.019 172.488 195.019 168.63C195.019 164.771 194.625 163.784 192.42 161.272L189.9 158.311L123.895 158.131C87.6637 158.042 57.2608 158.311 56.3943 158.67Z" fill="#717171"/>
<path d="M65.1384 231.081C62.4604 232.068 60.0975 233.863 57.1045 237.183C50.4883 244.809 50.4883 244.72 50.4883 290.661C50.4883 336.512 50.4883 336.602 57.0257 343.96C64.1932 352.035 61.3577 351.766 124.527 351.497L179.268 351.228L183.206 348.805C187.853 346.024 190.61 342.793 193.13 337.32L195.02 333.282L195.257 292.545C195.493 244.809 195.493 244.989 188.641 237.093C181.867 229.376 184.387 229.645 122.636 229.735C77.2681 229.735 68.3677 230.004 65.1384 231.081ZM175.566 252.257C176.905 253.782 176.905 327.539 175.566 329.065C174.227 330.59 71.6758 330.59 70.3368 329.065C68.9978 327.539 68.9978 253.782 70.3368 252.257C71.6758 250.732 174.227 250.732 175.566 252.257Z" fill="#717171"/>
</svg>
