<svg width="327" height="381" viewBox="0 0 327 381" fill="none" xmlns="http://www.w3.org/2000/svg">
<path d="M53.1725 0.516099C52.3556 0.894237 50.8704 2.10428 49.8307 3.23869C48.1226 5.12938 47.9741 5.81002 47.7513 14.6584L47.4543 24.0362H38.3941C24.5069 24.0362 16.8578 26.6832 9.7285 33.9435C5.49549 38.2542 2.15364 44.4557 0.89116 50.3546C-0.297053 56.0267 -0.297053 349.008 0.89116 354.68C2.82201 363.679 9.57997 372.906 17.1548 376.838C25.6208 381.225 17.6004 380.998 163.231 380.998C259.55 380.998 298.167 380.771 300.989 380.166C313.094 377.519 322.526 368.141 325.719 355.512C327.427 349.008 327.427 56.0267 325.719 49.5227C322.526 36.8929 313.094 27.5151 300.989 24.8682C298.836 24.4144 293.117 24.0362 288.216 24.0362H279.453L279.156 14.5828L278.933 5.12938L276.482 2.7093C274.403 0.591727 273.586 0.213589 270.393 0.213589C267.199 0.213589 266.383 0.591727 264.303 2.7093L261.852 5.12938L261.63 14.5828L261.333 24.0362H246.629H231.924L231.627 14.5828L231.405 5.12938L228.954 2.7093C226.874 0.591727 226.058 0.213589 222.864 0.213589C219.671 0.213589 218.854 0.591727 216.775 2.7093L214.324 5.12938L214.101 14.5828L213.804 24.0362H163.454H113.103L112.806 14.5828L112.583 5.12938L110.133 2.7093C108.053 0.591727 107.236 0.213589 104.043 0.213589C100.85 0.213589 100.033 0.591727 97.9533 2.7093L95.5026 5.12938L95.2798 14.5828L94.9828 24.0362H80.2787H65.5745L65.2775 14.5828C65.0547 5.205 65.0547 5.12938 62.7525 2.78492C60.3018 0.289217 55.9203 -0.693941 53.1725 0.516099ZM47.7513 51.6403L47.9741 61.0937L50.4248 63.5138C52.5042 65.6314 53.3211 66.0095 56.5144 66.0095C59.7077 66.0095 60.5246 65.6314 62.604 63.5138L65.0547 61.0937L65.2775 51.6403L65.5745 42.1868H80.2787H94.9828L95.2798 51.6403L95.5026 61.0937L97.9533 63.5138C100.033 65.6314 100.85 66.0095 104.043 66.0095C107.236 66.0095 108.053 65.6314 110.133 63.5138L112.583 61.0937L112.806 51.6403L113.103 42.1868H163.454H213.804L214.101 51.6403L214.324 61.0937L216.775 63.5138C218.854 65.6314 219.671 66.0095 222.864 66.0095C226.058 66.0095 226.874 65.6314 228.954 63.5138L231.405 61.0937L231.627 51.6403L231.924 42.1868H246.629H261.333L261.63 51.6403L261.852 61.0937L264.303 63.5138C266.383 65.6314 267.199 66.0095 270.393 66.0095C273.586 66.0095 274.403 65.6314 276.482 63.5138L278.933 61.0937L279.156 51.5647L279.453 42.0356L289.181 42.3381C297.944 42.565 299.281 42.7919 301.806 44.38C303.366 45.3632 305.519 47.5564 306.633 49.2202C308.638 52.2453 308.638 52.3966 308.861 68.4296L309.084 84.5382H163.528H17.8975V69.9421C17.8975 62.0012 18.2688 54.136 18.7144 52.5478C19.6798 48.9933 24.4326 44.0019 27.7002 43.0187C29.037 42.6406 34.0869 42.2625 38.8397 42.2625L47.4543 42.1868L47.7513 51.6403ZM308.861 227.701L308.638 352.713L306.633 355.814C305.519 357.478 303.366 359.671 301.806 360.654L298.984 362.469H163.379H27.8487L24.804 360.427C23.1702 359.293 21.0165 357.1 20.0511 355.512L18.2688 352.638L18.046 227.625L17.8975 102.689H163.454H309.01L308.861 227.701Z" fill="#717171"/>
<path d="M73.2978 145.796C70.4016 146.704 68.6193 148.519 67.6538 151.544C66.02 156.384 66.9855 157.821 80.8727 171.812C88.0762 178.997 94.9827 185.803 96.1709 186.787L98.3246 188.602L89.3387 200.021L80.3529 211.517L71.367 208.34C62.7524 205.315 62.3069 205.24 58.2966 206.147C50.9446 207.66 42.4043 214.996 42.4043 219.685C42.4043 222.785 44.7065 226.793 47.1571 227.928C48.4196 228.533 54.2864 230.802 60.1532 232.995L70.8472 236.928L75.7485 249.406C79.9815 260.221 81.0212 262.112 83.1749 263.548C88.2248 267.027 92.7548 265.364 97.2849 258.481C102.78 250.087 103.003 246.305 98.8444 235.491C97.2106 231.256 95.8739 227.399 95.8739 226.945C95.8739 226.264 108.499 214.92 115.702 209.097L117.41 207.66L130.629 220.819C137.833 228.079 144.888 234.886 146.224 236.02C150.532 239.575 156.993 238.289 159.443 233.373C160.409 231.558 160.557 229.44 160.334 224.147C159.889 213.634 158.032 210.231 147.041 199.492C142.214 194.727 138.204 190.568 138.204 190.265C138.204 190.039 141.397 187.013 145.259 183.61C149.418 179.98 152.982 176.123 153.874 174.384C157.587 166.972 156.176 158.88 150.16 153.132C144.516 147.763 137.907 146.628 131 149.88C128.104 151.242 126.025 153.132 122.46 157.594C119.861 160.846 117.039 164.325 116.222 165.384L114.588 167.35L105.899 158.729C95.2055 148.141 91.0468 145.872 81.6896 145.418C78.2735 145.191 74.4861 145.418 73.2978 145.796Z" fill="#717171"/>
<path d="M195.757 145.721C194.94 146.099 193.455 147.309 192.415 148.443C190.633 150.41 190.559 150.864 190.559 160.241V169.997L193.009 172.417L195.386 174.913H205.04H214.694L217.071 172.417L219.521 169.997V160.166V150.334L217.071 147.914L214.694 145.418L205.931 145.267C201.178 145.116 196.574 145.343 195.757 145.721Z" fill="#717171"/>
<path d="M255.169 145.721C254.352 146.099 252.867 147.309 251.827 148.443C250.045 150.41 249.971 150.864 249.971 160.241V169.997L252.421 172.417L254.798 174.913H264.452H274.106L276.483 172.417L278.933 169.997V160.166V150.334L276.483 147.914L274.106 145.418L265.343 145.267C260.59 145.116 255.986 145.343 255.169 145.721Z" fill="#717171"/>
<path d="M195.757 218.323C194.94 218.702 193.455 219.912 192.415 221.046C190.633 223.012 190.559 223.466 190.559 232.844V242.6L193.009 245.02L195.386 247.516H205.04H214.694L217.071 245.02L219.521 242.6V232.768V222.937L217.071 220.517L214.694 218.021L205.931 217.87C201.178 217.718 196.574 217.945 195.757 218.323Z" fill="#717171"/>
<path d="M255.169 218.323C254.352 218.702 252.867 219.912 251.827 221.046C250.045 223.012 249.971 223.466 249.971 232.844V242.6L252.421 245.02L254.798 247.516H264.452H274.106L276.483 245.02L278.933 242.6V232.768V222.937L276.483 220.517L274.106 218.021L265.343 217.87C260.59 217.718 255.986 217.945 255.169 218.323Z" fill="#717171"/>
<path d="M76.9367 290.925C76.1198 291.304 74.6346 292.514 73.5949 293.648C71.8125 295.614 71.7383 296.068 71.7383 305.446V315.202L74.189 317.622L76.5654 320.118H86.2196H95.8739L98.2503 317.622L100.701 315.202V305.37V295.539L98.2503 293.119L95.8739 290.623L87.1108 290.472C82.3579 290.32 77.7536 290.547 76.9367 290.925Z" fill="#717171"/>
<path d="M136.347 290.925C135.53 291.304 134.045 292.514 133.005 293.648C131.223 295.614 131.148 296.068 131.148 305.446V315.202L133.599 317.622L135.976 320.118H145.63H155.284L157.66 317.622L160.111 315.202V305.37V295.539L157.66 293.119L155.284 290.623L146.521 290.472C141.768 290.32 137.164 290.547 136.347 290.925Z" fill="#717171"/>
<path d="M195.757 290.925C194.94 291.304 193.455 292.514 192.415 293.648C190.633 295.614 190.559 296.068 190.559 305.446V315.202L193.009 317.622L195.386 320.118H205.04H214.694L217.071 317.622L219.521 315.202V305.37V295.539L217.071 293.119L214.694 290.623L205.931 290.472C201.178 290.32 196.574 290.547 195.757 290.925Z" fill="#717171"/>
<path d="M255.169 290.925C254.352 291.304 252.867 292.514 251.827 293.648C250.045 295.614 249.971 296.068 249.971 305.446V315.202L252.421 317.622L254.798 320.118H264.452H274.106L276.483 317.622L278.933 315.202V305.37V295.539L276.483 293.119L274.106 290.623L265.343 290.472C260.59 290.32 255.986 290.547 255.169 290.925Z" fill="#717171"/>
</svg>
