<svg width="395" height="380" viewBox="0 0 395 380" fill="none" xmlns="http://www.w3.org/2000/svg">
<path d="M191.775 1.08287C190.366 1.76237 146.855 43.1273 95.1531 93.071C-7.01758 191.684 -0.94019 185.314 0.645218 193.298C1.43792 197.46 6.72261 202.556 11.0384 203.321C19.3178 204.85 13.2404 210.201 109.246 117.703L197.5 32.595L285.842 117.703C381.76 210.201 375.682 204.85 383.962 203.321C388.277 202.556 393.562 197.46 394.355 193.298C395.94 185.314 402.018 191.684 299.847 92.9861C244.798 39.8997 204.722 1.76237 203.049 1.08287C199.526 -0.361081 195.21 -0.361081 191.775 1.08287Z" fill="#717171"/>
<path d="M50.8491 218.525C47.2379 220.054 43.5386 224.386 42.9221 227.783C42.6579 229.312 42.5698 251.736 42.7459 277.642C43.0983 330.643 42.834 328.435 49.9684 342.62C56.8385 356.21 68.0244 366.912 82.4692 373.622C97.1783 380.417 89.2512 379.992 197.499 379.992C306.364 379.992 297.908 380.502 313.322 373.197C331.466 364.534 344.766 348.99 350.491 329.454C351.9 324.358 352.077 319.941 352.077 274.924C352.077 226.764 352.077 225.914 350.227 223.621C346.792 219.119 343.973 217.76 338.424 217.76C332.876 217.76 330.057 219.119 326.622 223.621C324.86 225.914 324.772 227.104 324.332 273.65C323.892 319.856 323.803 321.555 322.042 326.226C317.55 337.608 308.126 346.697 296.323 351.028C291.303 352.812 290.862 352.812 200.582 353.067C135.58 353.237 108.364 353.067 104.577 352.387C98.4994 351.283 90.4843 347.546 85.5519 343.639C80.9719 339.986 75.3349 332.172 73.0448 326.226C71.1952 321.555 71.1071 319.941 70.6667 273.65C70.2263 227.104 70.1383 225.914 68.3767 223.621C67.4078 222.347 65.5582 220.478 64.3251 219.629C61.4185 217.506 54.3723 216.911 50.8491 218.525Z" fill="#717171"/>
</svg>
