<?xml version="1.0" standalone="no"?>
<!DOCTYPE svg PUBLIC "-//W3C//DTD SVG 20010904//EN"
 "http://www.w3.org/TR/2001/REC-SVG-20010904/DTD/svg10.dtd">
<svg version="1.0" xmlns="http://www.w3.org/2000/svg"
 width="512.000000pt" height="512.000000pt" viewBox="0 0 512.000000 512.000000"
 preserveAspectRatio="xMidYMid meet">

<g transform="translate(0.000000,512.000000) scale(0.100000,-0.100000)"
fill="#717171" stroke="none">
<path d="M2481 4784 c-29 -8 -67 -24 -85 -36 -45 -32 -1643 -1373 -1694 -1422
-23 -22 -47 -57 -53 -76 -7 -23 -9 -436 -7 -1225 3 -1324 -2 -1213 71 -1362
69 -143 214 -269 360 -315 69 -22 85 -23 452 -23 366 0 382 1 426 21 55 26
111 79 141 137 23 41 23 49 28 492 6 487 5 479 64 580 36 61 118 132 194 168
63 30 73 32 182 32 108 0 119 -2 182 -32 108 -51 191 -140 235 -253 15 -40 18
-99 23 -495 5 -443 5 -451 28 -492 30 -58 86 -111 141 -137 44 -20 60 -21 426
-21 367 0 383 1 452 23 146 46 291 172 360 315 73 149 68 39 71 1357 2 652 0
1199 -3 1217 -3 18 -18 47 -32 64 -26 30 -1657 1403 -1719 1447 -32 22 -132
53 -169 51 -11 0 -44 -7 -74 -15z m884 -987 l795 -669 -2 -1126 -3 -1127 -26
-55 c-35 -74 -67 -110 -131 -145 l-53 -30 -312 -3 -313 -3 0 374 c0 404 -6
469 -53 587 -42 102 -88 171 -177 260 -101 102 -217 168 -351 200 -264 63
-524 -12 -714 -204 -84 -86 -131 -156 -172 -256 -47 -118 -53 -183 -53 -587
l0 -374 -312 3 -313 3 -53 30 c-64 35 -96 71 -131 145 l-26 55 -3 1127 -2
1126 482 405 c266 223 625 525 798 671 173 146 318 264 323 263 4 -1 365 -303
802 -670z"/>
</g>
</svg>
