<svg width="439" height="437" viewBox="0 0 439 437" fill="none" xmlns="http://www.w3.org/2000/svg">
<path d="M120.61 1.54975C113.004 3.55433 105.488 8.01908 100.081 13.6684C91.0077 23.1446 87.5251 32.803 87.5251 48.5663V58.407H77.6269C66.2624 58.407 59.4804 59.8649 51.6902 63.9652C45.2747 67.4277 37.3013 75.446 34.0019 81.9153C28.5946 92.5761 28.8695 83.0999 28.8695 252.578V408.116L18.8797 408.48C10.448 408.662 8.43173 409.027 6.3238 410.667C1.46639 414.221 0 417.136 0 422.877C0 428.617 1.46639 431.533 6.3238 435.087L8.79833 437H219.5H430.202L432.676 435.087C437.534 431.533 439 428.617 439 422.877C439 417.136 437.534 414.221 432.676 410.667C430.568 409.027 428.552 408.662 420.12 408.48L410.13 408.116V252.578C410.13 83.0999 410.405 92.5761 404.998 81.9153C401.699 75.446 393.725 67.4277 387.31 63.9652C379.52 59.8649 372.738 58.407 361.373 58.407H351.475V48.5663C351.475 42.6437 350.925 36.63 350.1 33.3497C345.976 17.6775 333.695 5.55891 317.84 1.45863C310.141 -0.545955 128.126 -0.454837 120.61 1.54975ZM315.365 31.6185C316.74 32.6208 318.756 34.6254 319.764 35.9921L321.689 38.4523L321.964 223.421L322.147 408.298H307.575H293.003L292.636 380.234C292.27 358.092 291.903 351.258 290.803 347.249C285.029 327.75 274.948 313.627 259.184 303.513C246.72 295.403 235.447 292.123 219.5 292.123C203.553 292.123 192.189 295.403 179.908 303.422C163.961 313.809 153.971 327.659 148.197 347.249C147.097 351.258 146.73 358.092 146.364 380.234L145.997 408.298H131.425H116.853V224.787C116.853 96.9497 117.128 40.4569 117.861 38.6345C119.144 35.2632 122.168 31.983 125.56 30.5251C127.851 29.5228 145.081 29.3406 220.6 29.5228C312.157 29.705 312.891 29.705 315.365 31.6185ZM87.5251 247.931V408.298H72.8612H58.1973V253.945C58.1973 146.791 58.4722 98.7721 59.2054 96.9497C61.8633 90.0248 66.629 87.6557 78.6351 87.5646H87.5251V247.931ZM374.021 89.9337C375.395 90.936 377.412 92.9405 378.42 94.3073C380.344 96.7675 380.344 96.8586 380.619 252.578L380.803 408.298H366.139H351.475V247.84V87.3824L361.465 87.7468C369.896 87.9291 371.913 88.2936 374.021 89.9337ZM230.04 322.192C245.803 326.292 257.993 338.502 262.117 354.265C263.217 358.275 263.492 365.199 263.492 383.879V408.298H219.5H175.508V383.879C175.508 365.199 175.783 358.275 176.883 354.265C183.024 330.757 207.036 316.269 230.04 322.192Z" fill="#717171"/>
<path d="M154.887 59.6828C145.631 63.692 143.431 75.9017 150.671 83.1C160.936 93.3963 177.8 84.1934 175.142 69.7968C173.492 61.2318 163.136 56.0381 154.887 59.6828Z" fill="#717171"/>
<path d="M213.544 59.6828C204.287 63.692 202.087 75.9017 209.328 83.1C219.592 93.3963 236.456 84.1934 233.798 69.7968C232.148 61.2318 221.792 56.0381 213.544 59.6828Z" fill="#717171"/>
<path d="M272.198 59.6828C262.941 63.692 260.742 75.9017 267.982 83.1C278.247 93.3963 295.11 84.1934 292.452 69.7968C290.803 61.2318 280.446 56.0381 272.198 59.6828Z" fill="#717171"/>
<path d="M154.887 117.998C145.631 122.007 143.431 134.217 150.671 141.415C160.936 151.711 177.8 142.508 175.142 128.112C173.492 119.547 163.136 114.353 154.887 117.998Z" fill="#717171"/>
<path d="M213.544 117.998C204.287 122.007 202.087 134.217 209.328 141.415C219.592 151.711 236.456 142.508 233.798 128.112C232.148 119.547 221.792 114.353 213.544 117.998Z" fill="#717171"/>
<path d="M272.198 117.998C262.941 122.007 260.742 134.217 267.982 141.415C278.247 151.711 295.11 142.508 292.452 128.112C290.803 119.547 280.446 114.353 272.198 117.998Z" fill="#717171"/>
<path d="M154.887 176.313C145.631 180.322 143.431 192.532 150.671 199.73C160.936 210.027 177.8 200.824 175.142 186.427C173.492 177.862 163.136 172.668 154.887 176.313Z" fill="#717171"/>
<path d="M213.544 176.313C204.287 180.322 202.087 192.532 209.328 199.73C219.592 210.027 236.456 200.824 233.798 186.427C232.148 177.862 221.792 172.668 213.544 176.313Z" fill="#717171"/>
<path d="M272.198 176.313C262.941 180.322 260.742 192.532 267.982 199.73C278.247 210.027 295.11 200.824 292.452 186.427C290.803 177.862 280.446 172.668 272.198 176.313Z" fill="#717171"/>
<path d="M154.887 234.628C145.631 238.637 143.431 250.847 150.671 258.045C156.629 263.968 165.06 263.968 171.018 258.045C182.382 246.747 169.643 228.25 154.887 234.628Z" fill="#717171"/>
<path d="M213.544 234.628C204.287 238.637 202.087 250.847 209.328 258.045C215.285 263.968 223.717 263.968 229.674 258.045C241.038 246.747 228.299 228.25 213.544 234.628Z" fill="#717171"/>
<path d="M272.198 234.628C262.941 238.637 260.742 250.847 267.982 258.045C273.939 263.968 282.371 263.968 288.328 258.045C299.693 246.747 286.953 228.25 272.198 234.628Z" fill="#717171"/>
</svg>
