<svg width="383" height="382" viewBox="0 0 383 382" fill="none" xmlns="http://www.w3.org/2000/svg">
<path d="M131.207 1.33434C124.999 5.07458 124.026 9.18884 127.093 18.689C128.365 22.5041 129.262 25.7207 129.188 25.7207C129.113 25.7955 127.168 26.6183 124.924 27.516C118.117 30.3586 105.549 37.1658 98.443 41.9533C66.4266 63.3474 45.2568 94.167 38.1504 129.699C36.2803 138.825 35.3078 158.798 36.2803 168.523C37.0283 177.125 40.9182 181.763 47.2018 181.838C49.5955 181.838 67.025 176.303 109.065 162.239C144.373 150.42 167.937 142.865 168.385 143.314C168.759 143.688 180.13 177.2 193.669 217.819L218.355 291.651H163.747H109.14L63.8832 259.037C38.9732 241.083 17.7287 225.973 16.6066 225.374C9.87422 221.859 0.748047 227.768 0.748047 235.548C0.822852 241.308 1.5709 241.981 47.875 275.269C71.9621 292.549 91.7105 307.136 91.7853 307.585C91.8602 308.108 88.3443 319.778 83.8561 333.542L75.7023 358.602L41.8158 358.976C11.1459 359.35 7.63008 359.499 5.46074 360.696C2.61816 362.192 0 366.83 0 370.196C0 373.937 2.61816 378.2 5.98437 379.921C8.90176 381.417 9.94902 381.417 191.5 381.417C373.051 381.417 374.098 381.417 377.016 379.921C380.382 378.2 383 373.937 383 370.196C383 366.456 380.382 362.192 377.016 360.472C374.547 359.2 372.602 358.976 364.897 358.976H355.696L339.613 326.959C324.278 296.588 323.381 294.943 320.538 293.372C317.546 291.651 317.471 291.651 279.77 291.651H241.993L215.961 213.705C201.599 170.917 190.154 135.609 190.528 135.31C190.827 135.01 217.607 125.959 249.922 115.187C304.904 96.8599 308.869 95.4386 311.262 92.9701C313.581 90.5763 313.806 89.9779 313.806 85.714C313.806 81.525 313.506 80.5525 310.514 75.8398C296.301 53.548 278.797 37.7642 255.458 26.4687C227.107 12.7047 195.913 9.18884 161.877 15.9961C156.865 17.0433 152.302 18.0158 151.779 18.2402C150.956 18.5394 150.133 17.0433 148.637 12.3306C147.515 8.88962 145.869 5.14938 144.971 4.02731C141.83 -0.0121398 135.396 -1.20901 131.207 1.33434ZM217.831 37.3154C228.528 39.3351 235.635 41.8037 246.481 46.9652C260.545 53.7724 273.785 64.2451 282.837 75.6902L285.904 79.5052L260.62 87.9582C246.706 92.5961 235.336 96.3363 235.336 96.1867C235.261 96.1119 233.316 92.0724 230.922 87.2101C221.721 68.7334 207.059 49.5834 192.996 37.6894L189.63 34.8468L199.729 35.2957C205.264 35.5201 213.418 36.4177 217.831 37.3154ZM160.68 44.1226C173.248 48.3865 189.705 63.5718 202.571 82.7219C205.937 87.7338 214.315 103.069 213.867 103.443C212.819 104.34 130.085 131.345 129.786 130.821C129.637 130.522 128.888 127.081 128.14 123.266C126.27 113.093 126.27 84.4424 128.14 75.4658C131.731 58.4103 137.267 48.1621 145.046 44.0478C148.712 42.1029 154.921 42.1777 160.68 44.1226ZM106.746 68.509C102.707 86.6117 103.305 118.478 108.018 136.806C108.542 138.676 108.317 138.751 84.3797 146.829C71.0645 151.318 59.7689 155.133 59.3201 155.357C57.824 155.881 58.1232 145.184 59.7689 135.983C63.584 114.738 73.3086 95.5883 88.6436 79.3556C94.1043 73.5209 106.971 62.5246 107.569 63.123C107.719 63.2726 107.345 65.6664 106.746 68.509ZM233.166 335.412C236.981 346.932 240.347 356.956 240.572 357.629C240.946 358.901 237.28 358.976 170.255 358.976C131.357 358.976 99.4902 358.751 99.4902 358.452C99.4902 358.078 111.908 319.179 113.329 314.99C113.628 314.242 125.298 314.093 169.881 314.242L226.135 314.467L233.166 335.412ZM318.892 336.16C324.952 348.279 329.889 358.377 329.889 358.602C329.889 358.826 315.227 358.901 297.199 358.826L264.584 358.602L257.553 337.656C253.737 326.136 250.371 316.112 250.147 315.364C249.773 314.168 251.493 314.093 278.797 314.093H307.821L318.892 336.16Z" fill="#717171"/>
</svg>
