<svg width="510" height="317" viewBox="0 0 510 317" fill="none" xmlns="http://www.w3.org/2000/svg">
<path d="M164.585 13.5343C144.659 20.9068 127.523 27.6814 126.427 28.6777C121.346 33.2606 119.952 41.9282 123.439 47.5073C124.535 49.4002 139.678 60.9571 162.692 77.3956C183.215 92.2401 199.753 104.594 199.454 104.893C199.056 105.192 177.038 113.361 150.438 123.025C123.837 132.589 101.421 140.759 100.524 141.157C99.4284 141.556 93.1518 137.073 80.001 126.412C59.7766 109.974 56.5885 107.782 52.0056 107.782C47.8213 107.782 7.97021 122.427 5.08101 125.018C2.29143 127.608 0 132.589 0 136.076C0 138.168 18.9292 191.868 25.7039 208.904C33.2756 228.033 51.0093 245.766 70.8352 254.035C85.4805 260.113 103.712 261.806 119.155 258.718C123.239 257.821 147.449 249.552 173.053 240.187C198.558 230.922 219.679 223.45 219.878 223.749C220.177 224.047 216.092 241.283 210.812 262.006C205.532 282.728 201.248 301.259 201.248 303.152C201.248 310.225 208.222 317 215.495 317C219.28 317 289.219 292.292 293.702 289.304C296.791 287.311 296.193 288.606 321.897 229.925C334.35 201.532 344.811 178.119 345.01 177.92C345.21 177.621 376.293 166.263 414.052 152.515C451.811 138.766 485.286 126.114 488.474 124.519C504.713 115.852 513.481 95.3286 508.699 77.296C505.61 65.6395 496.943 54.9794 486.183 49.4999C458.287 35.3528 419.432 31.0688 386.854 38.4412C380.876 39.7364 365.334 44.7178 352.184 49.4999C339.033 54.282 327.874 58.2671 327.277 58.2671C326.779 58.2671 300.278 45.3155 268.496 29.5744C220.077 5.5641 209.915 0.881604 205.731 0.582722C201.347 0.283839 196.266 1.87788 164.585 13.5343ZM246.18 51.8909C270.29 63.8463 287.824 73.012 286.928 73.3109C286.13 73.6098 274.275 77.8937 260.626 82.8751C247.076 87.7569 235.42 91.8416 234.922 91.8416C234.424 91.8416 221.273 82.7755 205.93 71.7168C171.559 47.1088 168.371 44.7178 168.769 44.3192C168.968 44.12 176.939 41.0315 186.403 37.5446C195.968 34.0576 203.738 31.1684 203.838 31.0688C203.938 31.0688 222.967 40.4338 246.18 51.8909ZM444.638 67.0343C455.099 69.1265 468.748 73.7094 474.028 76.8975C478.113 79.3882 480.604 84.9673 479.807 89.7494C478.611 97.1219 479.109 96.9226 399.905 125.815C341.723 147.035 325.782 153.212 323.59 155.404C321.698 157.297 313.229 175.429 297.388 211.395C284.636 240.685 273.478 264.994 272.78 265.493C270.09 267.087 238.708 278.145 238.309 277.647C238.01 277.348 242.095 260.212 247.375 239.39C252.755 218.668 257.039 200.137 257.039 198.344C257.039 191.17 250.065 184.495 242.593 184.495C239.804 184.495 219.779 191.37 178.832 206.214C145.954 218.169 116.963 228.531 114.372 229.128C92.8529 234.508 66.8501 222.952 56.2896 203.425C54.6956 200.436 49.0168 186.089 43.7365 171.544L34.1723 145.142L41.5447 142.452L48.9172 139.663L67.5475 154.806C87.1742 170.846 91.3585 173.536 95.9414 173.536C97.5354 173.536 162.891 150.223 241.298 121.73C319.705 93.1368 387.651 68.9273 392.433 67.7317C408.573 63.9459 427.402 63.647 444.638 67.0343Z" fill="#717171"/>
</svg>
