<svg width="20" height="20" viewBox="0 0 20 20" fill="none" xmlns="http://www.w3.org/2000/svg">
<path fill-rule="evenodd" clip-rule="evenodd" d="M9.67661 1.6665C5.25302 1.6665 1.66699 5.17333 1.66699 9.49922C1.66699 13.8251 5.25302 17.3319 9.67661 17.3319C11.5686 17.3319 13.3073 16.6905 14.6778 15.6178L17.2812 18.157L17.3505 18.2154C17.5922 18.3903 17.9348 18.3704 18.1536 18.1559C18.3941 17.9201 18.3936 17.5381 18.1524 17.3028L15.5796 14.7934C16.8878 13.3993 17.6862 11.5405 17.6862 9.49922C17.6862 5.17333 14.1002 1.6665 9.67661 1.6665ZM9.6766 2.87295C13.4188 2.87295 16.4525 5.83963 16.4525 9.49922C16.4525 13.1588 13.4188 16.1255 9.6766 16.1255C5.93437 16.1255 2.90068 13.1588 2.90068 9.49922C2.90068 5.83963 5.93437 2.87295 9.6766 2.87295Z" fill="#200E32"/>
</svg>
